<svg width="25" height="25" viewBox="0 0 25 25" fill="none" xmlns="http://www.w3.org/2000/svg">
<rect x="0.460938" y="0.140625" width="24" height="24" rx="12" fill="#002BBA"/>
<path d="M7.8652 16.0293C7.66993 16.2245 7.66993 16.5411 7.8652 16.7364C8.06046 16.9316 8.37704 16.9316 8.5723 16.7364L7.8652 16.0293ZM17.204 7.89753C17.204 7.62139 16.9802 7.39753 16.704 7.39753L12.204 7.39753C11.9279 7.39753 11.704 7.62139 11.704 7.89753C11.704 8.17367 11.9279 8.39753 12.204 8.39753L16.204 8.39753L16.204 12.3975C16.204 12.6737 16.4279 12.8975 16.704 12.8975C16.9802 12.8975 17.204 12.6737 17.204 12.3975L17.204 7.89753ZM8.21875 16.3828L8.5723 16.7364L17.0576 8.25108L16.704 7.89753L16.3505 7.54398L7.8652 16.0293L8.21875 16.3828Z" fill="#FBFBFB"/>
</svg>
